<?xml version="1.0" encoding="UTF-8" standalone="no"?>
<svg
   width="20"
   height="20"
   viewBox="0 0 20 20"
   fill="none"
   version="1.1"
   id="svg836"
   xmlns="http://www.w3.org/2000/svg"
   xmlns:svg="http://www.w3.org/2000/svg">
  <defs
     id="defs840" />
  <rect
     width="20"
     height="20"
     rx="4"
     fill="#FCB32C"
     id="rect832" />
  <path
     d="M8.60646 4.375L8.95677 4.83118C9.02917 4.92171 9.07355 4.94875 9.19032 4.88879C9.4631 4.7455 9.76947 4.67965 10.0766 4.69829C10.3837 4.71693 10.68 4.81936 10.9337 4.9946C11.0341 5.06045 11.0902 5.06045 11.1602 4.96051C11.2829 4.78297 11.4136 4.60779 11.5468 4.44201L11.8831 4.69832C11.7172 4.93347 11.6063 5.06867 11.4323 5.29559C11.3903 5.35085 11.3588 5.392 11.4078 5.46607C11.5637 5.69058 11.6606 5.95122 11.6894 6.22364C11.7182 6.49606 11.678 6.77138 11.5725 7.02391C11.5646 7.0508 11.5591 7.07834 11.5561 7.10621C11.8188 7.12385 12.0734 7.13795 12.328 7.15912C13.0779 7.20593 13.8212 7.32883 14.5466 7.52594C15.0853 7.67237 15.5528 8.01062 15.8625 8.47789C16.1722 8.94516 16.3029 9.5097 16.2305 10.0667C16.1848 10.4661 16.0482 10.8495 15.8312 11.1871C15.6142 11.5246 15.3228 11.8071 14.9796 12.0126C14.6363 12.2182 14.2506 12.3411 13.8525 12.3718C13.4543 12.4026 13.0545 12.3404 12.6841 12.19L12.5288 12.1301C12.516 12.1701 12.502 12.203 12.4938 12.2371C12.3794 12.7567 12.112 13.2296 11.7266 13.5939C11.477 13.8527 11.2412 14.1247 11.0201 14.4086C10.6932 14.8072 10.3755 15.2128 10.0544 15.6161C10.0346 15.6408 10.0112 15.6631 9.97385 15.7031C9.75666 15.4256 9.05486 14.4827 8.99531 14.3651C8.98597 14.3452 8.76177 14.13 8.67302 14.0406C8.51071 13.8666 8.3589 13.6879 8.19309 13.5116C7.84869 13.17 7.61225 12.7335 7.51348 12.2571C7.50531 12.2171 7.49013 12.1783 7.47495 12.1266C6.56296 12.5122 5.6825 12.4793 4.85109 11.9384C4.33637 11.5978 3.96271 11.0799 3.80015 10.4817C3.64835 9.9162 3.86788 8.85804 4.10025 8.48298C4.39335 7.97037 4.8546 7.69407 5.40342 7.53535C6.12937 7.34097 6.87246 7.2185 7.62208 7.1697C7.87664 7.14854 8.1312 7.13443 8.40561 7.11561C8.12186 6.41018 8.24213 5.7941 8.72206 5.23445L8.28183 4.63718C8.33905 4.58193 8.60646 4.375 8.60646 4.375ZM4.28592 10.4888C4.56967 11.3118 5.08464 11.7821 5.93707 11.9196C6.8292 12.069 7.57187 11.7633 8.09967 11.0167C8.41349 10.555 8.66739 10.0548 8.85518 9.5282C9.08873 8.91095 9.30475 8.28429 9.52662 7.66115C9.53946 7.62235 9.54413 7.5812 9.55698 7.52359C9.32344 7.52359 9.10858 7.50831 8.89255 7.52359C8.06114 7.59061 7.22739 7.6541 6.39831 7.74698C6.06648 7.79779 5.73868 7.87244 5.41743 7.97037C5.16695 8.04019 4.93826 8.17312 4.75295 8.35661C4.56765 8.5401 4.43183 8.76811 4.35832 9.01912C4.25789 9.40358 4.16564 10.0408 4.29059 10.4841L4.28592 10.4888ZM10.4888 9.19547L10.3253 8.70872L9.97502 7.68232C9.94349 7.75756 9.92714 7.79048 9.91547 7.82458C9.79169 8.18905 9.67025 8.55353 9.54647 8.918C9.50793 9.0297 9.44371 9.23898 9.44371 9.23898C9.6041 9.33274 9.78239 9.39124 9.96685 9.41063C10.0649 9.41653 10.163 9.40039 10.2541 9.36338C10.3452 9.32637 10.427 9.26942 10.4935 9.19665L10.4888 9.19547ZM11.0552 9.4365C11.1626 9.68928 11.2665 9.94441 11.3751 10.1866C11.5109 10.4678 11.6671 10.7385 11.8422 10.9967C12.0262 11.2805 12.2756 11.5152 12.5692 11.6808C12.8629 11.8464 13.1919 11.9381 13.5284 11.9479C14.9098 12.0266 16.0343 10.8274 15.7832 9.44826C15.6665 8.80161 15.3512 8.27253 14.7054 8.03033C14.4427 7.9328 14.1724 7.8573 13.8974 7.80459C12.794 7.60604 11.675 7.50923 10.5542 7.51536C10.5063 7.51536 10.4573 7.51536 10.3872 7.52359L10.727 8.56881L11.0552 9.4365ZM9.95634 9.84212C9.71587 9.83614 9.48274 9.75749 9.28724 9.61638C9.24637 9.70809 9.21601 9.78569 9.17864 9.85976C8.96028 10.2901 8.74542 10.7216 8.51888 11.1531C8.43481 11.3118 8.42196 11.3071 8.57844 11.4082C9.47602 11.9867 10.3818 11.9988 11.2957 11.4446C11.3693 11.4 11.4393 11.3471 11.5059 11.3012C11.3249 10.9743 11.1404 10.651 10.9979 10.3865C10.8555 10.1219 10.6476 9.63755 10.6476 9.63755C10.6476 9.63755 10.2167 9.85388 9.96101 9.8433L9.95634 9.84212ZM9.99137 13.8161C10.4693 13.8218 10.935 13.6641 11.3124 13.3688C11.6898 13.0734 11.9564 12.6578 12.0687 12.19C12.1131 12.0055 12.1213 11.8585 11.9321 11.7327C11.8153 11.6551 11.7558 11.6386 11.6367 11.7198C11.1001 12.1149 10.4421 12.3064 9.77884 12.2606C9.23324 12.2104 8.71004 12.0179 8.26082 11.7021C8.22111 11.6751 8.14404 11.6492 8.11602 11.6669C7.91634 11.7656 7.86963 11.8761 7.9105 12.0983C8.00298 12.5855 8.26245 13.0245 8.64363 13.3387C9.0248 13.6528 9.50346 13.8222 9.99604 13.8173L9.99137 13.8161ZM9.97852 7.08857C10.2728 7.08857 10.5577 7.0874 10.8566 7.0874C11.0902 7.0874 11.0902 7.09445 11.1824 6.87224C11.2745 6.66349 11.305 6.43251 11.2705 6.20678C11.2359 5.98104 11.1377 5.77006 10.9874 5.59893C10.8385 5.40825 10.6381 5.26489 10.4103 5.18606C10.1824 5.10723 9.93682 5.09627 9.70294 5.1545C9.51308 5.19087 9.33412 5.27088 9.18001 5.38831C9.0259 5.50574 8.9008 5.65741 8.81446 5.8315C8.72812 6.00559 8.68287 6.19741 8.68224 6.392C8.6816 6.58659 8.7256 6.7787 8.81081 6.95337C8.82396 6.99559 8.85104 7.03201 8.88757 7.0566C8.9241 7.0812 8.96788 7.09248 9.01166 7.08857C9.33394 7.08269 9.65624 7.08857 9.97852 7.08857ZM9.36547 14.17L9.34679 14.2017L9.98203 15.0153L10.6254 14.2076L10.6044 14.1747C10.1974 14.276 9.77175 14.2744 9.36547 14.17Z"
     fill="#644202"
     stroke="#644202"
     stroke-width="0.5"
     id="path834" />
</svg>
