<?xml version="1.0" encoding="UTF-8"?><svg id="b" xmlns="http://www.w3.org/2000/svg" xmlns:xlink="http://www.w3.org/1999/xlink" viewBox="0 0 217.86 244"><defs><style>.h{fill:url(#e);}.h,.i{fill-rule:evenodd;stroke-width:0px;}.i{fill:#fff;}</style><linearGradient id="e" x1="13.15" y1="26.22" x2="228.57" y2="241.65" gradientUnits="userSpaceOnUse"><stop offset="0" stop-color="#f90"/><stop offset="1" stop-color="#c33c1a"/></linearGradient></defs><g id="c"><g id="d"><path class="h" d="m215.58,57.17L111.01.53c-1.29-.71-2.86-.71-4.16,0L2.28,57.17c-1.4.76-2.28,2.23-2.28,3.83v122c0,1.6.88,3.07,2.28,3.83l104.57,56.64c.65.35,1.36.53,2.08.53s1.43-.17,2.08-.53l104.57-56.64c1.4-.76,2.28-2.23,2.28-3.83V61c0-1.6-.88-3.07-2.28-3.83h0Z"/><g id="f"><path id="g" class="i" d="m174.28,87.14v52.29h-8.12l-.59-.36v-49.24l-56.64-28.32-56.64,28.32v64.41l54.49,29.18c0,.11.02.23.03.34l-3.97,7.42-56.96-30.5c-1.42-.75-2.3-2.23-2.3-3.84v-69.71c0-1.65.93-3.16,2.41-3.9l61-30.5c1.22-.61,2.67-.61,3.9,0l61,30.5c1.48.74,2.41,2.25,2.41,3.9h0Zm-13.08,93.39l-17.43,10.46-17.42-10.46v-21.21l17.43-10.46,17.43,10.46v21.21Zm-56.64-60.42l17.43-10.46,17.43,10.46v21.21s-17.43,10.46-17.43,10.46l-17.42-10.46v-21.21Zm63.24,33.01l-19.68-11.81v-23.67c0-1.53-.8-2.95-2.11-3.73l-21.79-13.07c-1.38-.83-3.11-.83-4.49,0l-21.79,13.07c-1.31.78-2.11,2.2-2.11,3.73v26.14c0,1.53.81,2.95,2.11,3.73l19.67,11.81v23.67c0,1.53.81,2.95,2.11,3.73l21.78,13.07c.69.42,1.47.62,2.24.62s1.55-.2,2.24-.62l21.79-13.07c1.31-.78,2.11-2.2,2.11-3.73v-26.14c0-1.53-.8-2.95-2.11-3.73h0ZM110.84,26.65l82.9,43.57c1.43.75,2.33,2.24,2.33,3.86v95.86c0,1.62-.89,3.1-2.33,3.86l-12.93,6.81v-9.85s6.54-3.45,6.54-3.45v-90.59l-78.53-41.28L30.5,76.7v90.59l78.53,41.28,13.82-7.28,8.74,5.25-20.52,10.81c-.63.33-1.33.5-2.03.5s-1.39-.17-2.02-.5l-82.9-43.57c-1.43-.75-2.33-2.24-2.33-3.86v-95.86c0-1.62.89-3.1,2.33-3.86L106.79,26.65c1.27-.67,2.78-.67,4.05,0h0Z"/></g></g></g></svg>